<svg width="47" height="42" viewBox="0 0 47 42" fill="none" xmlns="http://www.w3.org/2000/svg">
<path d="M21.7 1.9999H24V40.1999H21.7V36.3999C21.7 35.9999 21.3 35.5999 20.9 35.5999H18.6C17.3 35.5999 16.3 34.5999 16.3 33.2999V8.8999C16.3 7.6999 17.3 6.5999 18.6 6.5999H20.9C21.3 6.5999 21.7 6.1999 21.7 5.7999V1.9999ZM21 0.399902C20.6 0.399902 20.2 0.799903 20.2 1.1999V4.9999H18.7C16.6 4.9999 14.8 6.6999 14.8 8.7999V33.2999C14.8 35.3999 16.5 37.0999 18.7 37.0999H20.2V40.8999C20.2 41.2999 20.6 41.6999 21 41.6999H24.9C25.3 41.6999 25.7 41.2999 25.7 40.8999V1.1999C25.7 0.799903 25.3 0.399902 24.9 0.399902C24.8 0.399902 21 0.399902 21 0.399902Z" fill="#4E4B66" stroke="#4E4B66" stroke-width="0.6158" stroke-miterlimit="10"/>
<path d="M21.7 1.9999H24V40.1999H21.7V36.3999C21.7 35.9999 21.3 35.5999 20.9 35.5999H18.6C17.3 35.5999 16.3 34.5999 16.3 33.2999V8.8999C16.3 7.6999 17.3 6.5999 18.6 6.5999H20.9C21.3 6.5999 21.7 6.1999 21.7 5.7999V1.9999ZM21 0.399902C20.6 0.399902 20.2 0.799903 20.2 1.1999V4.9999H18.7C16.6 4.9999 14.8 6.6999 14.8 8.7999V33.2999C14.8 35.3999 16.5 37.0999 18.7 37.0999H20.2V40.8999C20.2 41.2999 20.6 41.6999 21 41.6999H24.9C25.3 41.6999 25.7 41.2999 25.7 40.8999V1.1999C25.7 0.799903 25.3 0.399902 24.9 0.399902C24.8 0.399902 21 0.399902 21 0.399902Z" fill="#4E4B66" stroke="#4E4B66" stroke-width="0.6158" stroke-miterlimit="10"/>
<path d="M21 8H15.6V9.6H21V8Z" fill="#4E4B66" stroke="#4E4B66" stroke-width="0.6158" stroke-miterlimit="10"/>
<path d="M21 8H15.6V9.6H21V8Z" fill="#4E4B66" stroke="#4E4B66" stroke-width="0.6158" stroke-miterlimit="10"/>
<path d="M21 11.2H15.6V12.7999H21V11.2Z" fill="#4E4B66" stroke="#4E4B66" stroke-width="0.6158" stroke-miterlimit="10"/>
<path d="M21 11.2H15.6V12.7999H21V11.2Z" fill="#4E4B66" stroke="#4E4B66" stroke-width="0.6158" stroke-miterlimit="10"/>
<path d="M21 14.2H15.6V15.7999H21V14.2Z" fill="#4E4B66" stroke="#4E4B66" stroke-width="0.6158" stroke-miterlimit="10"/>
<path d="M21 14.2H15.6V15.7999H21V14.2Z" fill="#4E4B66" stroke="#4E4B66" stroke-width="0.6158" stroke-miterlimit="10"/>
<path d="M21 17.2H15.6V18.7999H21V17.2Z" fill="#4E4B66" stroke="#4E4B66" stroke-width="0.6158" stroke-miterlimit="10"/>
<path d="M21 17.2H15.6V18.7999H21V17.2Z" fill="#4E4B66" stroke="#4E4B66" stroke-width="0.6158" stroke-miterlimit="10"/>
<path d="M21 20.2H15.6V21.7999H21V20.2Z" fill="#4E4B66" stroke="#4E4B66" stroke-width="0.6158" stroke-miterlimit="10"/>
<path d="M21 20.2H15.6V21.7999H21V20.2Z" fill="#4E4B66" stroke="#4E4B66" stroke-width="0.6158" stroke-miterlimit="10"/>
<path d="M21 23.2998H15.6V24.8998H21V23.2998Z" fill="#4E4B66" stroke="#4E4B66" stroke-width="0.6158" stroke-miterlimit="10"/>
<path d="M21 23.2998H15.6V24.8998H21V23.2998Z" fill="#4E4B66" stroke="#4E4B66" stroke-width="0.6158" stroke-miterlimit="10"/>
<path d="M21 26.2998H15.6V27.8998H21V26.2998Z" fill="#4E4B66" stroke="#4E4B66" stroke-width="0.6158" stroke-miterlimit="10"/>
<path d="M21 26.2998H15.6V27.8998H21V26.2998Z" fill="#4E4B66" stroke="#4E4B66" stroke-width="0.6158" stroke-miterlimit="10"/>
<path d="M21 29.3999H15.6V30.9999H21V29.3999Z" fill="#4E4B66" stroke="#4E4B66" stroke-width="0.6158" stroke-miterlimit="10"/>
<path d="M21 29.3999H15.6V30.9999H21V29.3999Z" fill="#4E4B66" stroke="#4E4B66" stroke-width="0.6158" stroke-miterlimit="10"/>
<path d="M21 32.5H15.6V34.1H21V32.5Z" fill="#4E4B66" stroke="#4E4B66" stroke-width="0.6158" stroke-miterlimit="10"/>
<path d="M21 32.5H15.6V34.1H21V32.5Z" fill="#4E4B66" stroke="#4E4B66" stroke-width="0.6158" stroke-miterlimit="10"/>
<path d="M39.2 1.9999H37V40.1999H39.3V36.3999C39.3 35.9999 39.7 35.5999 40.1 35.5999H42.4C43.7 35.5999 44.7 34.5999 44.7 33.2999V8.8999C44.7 7.6999 43.7 6.5999 42.4 6.5999H40C39.6 6.5999 39.2 6.1999 39.2 5.7999V1.9999ZM40 0.399902C40.4 0.399902 40.8 0.799903 40.8 1.1999V4.9999H42.3C44.4 4.9999 46.2 6.6999 46.2 8.7999V33.2999C46.2 35.3999 44.5 37.0999 42.3 37.0999H40.8V40.8999C40.8 41.2999 40.4 41.6999 40 41.6999H36.1C35.7 41.6999 35.3 41.2999 35.3 40.8999V1.1999C35.3 0.799903 35.7 0.399902 36.1 0.399902C36.1 0.399902 40 0.399902 40 0.399902Z" fill="#4E4B66" stroke="#4E4B66" stroke-width="0.6158" stroke-miterlimit="10"/>
<path d="M39.2 1.9999H37V40.1999H39.3V36.3999C39.3 35.9999 39.7 35.5999 40.1 35.5999H42.4C43.7 35.5999 44.7 34.5999 44.7 33.2999V8.8999C44.7 7.6999 43.7 6.5999 42.4 6.5999H40C39.6 6.5999 39.2 6.1999 39.2 5.7999V1.9999ZM40 0.399902C40.4 0.399902 40.8 0.799903 40.8 1.1999V4.9999H42.3C44.4 4.9999 46.2 6.6999 46.2 8.7999V33.2999C46.2 35.3999 44.5 37.0999 42.3 37.0999H40.8V40.8999C40.8 41.2999 40.4 41.6999 40 41.6999H36.1C35.7 41.6999 35.3 41.2999 35.3 40.8999V1.1999C35.3 0.799903 35.7 0.399902 36.1 0.399902C36.1 0.399902 40 0.399902 40 0.399902Z" fill="#4E4B66" stroke="#4E4B66" stroke-width="0.6158" stroke-miterlimit="10"/>
<path d="M45.4 8H40V9.6H45.4V8Z" fill="#4E4B66" stroke="#4E4B66" stroke-width="0.6158" stroke-miterlimit="10"/>
<path d="M45.4 8H40V9.6H45.4V8Z" fill="#4E4B66" stroke="#4E4B66" stroke-width="0.6158" stroke-miterlimit="10"/>
<path d="M45.4 11.2H40V12.7999H45.4V11.2Z" fill="#4E4B66" stroke="#4E4B66" stroke-width="0.6158" stroke-miterlimit="10"/>
<path d="M45.4 11.2H40V12.7999H45.4V11.2Z" fill="#4E4B66" stroke="#4E4B66" stroke-width="0.6158" stroke-miterlimit="10"/>
<path d="M45.4 14.2H40V15.7999H45.4V14.2Z" fill="#4E4B66" stroke="#4E4B66" stroke-width="0.6158" stroke-miterlimit="10"/>
<path d="M45.4 14.2H40V15.7999H45.4V14.2Z" fill="#4E4B66" stroke="#4E4B66" stroke-width="0.6158" stroke-miterlimit="10"/>
<path d="M45.4 17.2H40V18.7999H45.4V17.2Z" fill="#4E4B66" stroke="#4E4B66" stroke-width="0.6158" stroke-miterlimit="10"/>
<path d="M45.4 17.2H40V18.7999H45.4V17.2Z" fill="#4E4B66" stroke="#4E4B66" stroke-width="0.6158" stroke-miterlimit="10"/>
<path d="M45.4 20.2H40V21.7999H45.4V20.2Z" fill="#4E4B66" stroke="#4E4B66" stroke-width="0.6158" stroke-miterlimit="10"/>
<path d="M45.4 20.2H40V21.7999H45.4V20.2Z" fill="#4E4B66" stroke="#4E4B66" stroke-width="0.6158" stroke-miterlimit="10"/>
<path d="M45.4 23.2998H40V24.8998H45.4V23.2998Z" fill="#4E4B66" stroke="#4E4B66" stroke-width="0.6158" stroke-miterlimit="10"/>
<path d="M45.4 23.2998H40V24.8998H45.4V23.2998Z" fill="#4E4B66" stroke="#4E4B66" stroke-width="0.6158" stroke-miterlimit="10"/>
<path d="M45.4 26.2998H40V27.8998H45.4V26.2998Z" fill="#4E4B66" stroke="#4E4B66" stroke-width="0.6158" stroke-miterlimit="10"/>
<path d="M45.4 26.2998H40V27.8998H45.4V26.2998Z" fill="#4E4B66" stroke="#4E4B66" stroke-width="0.6158" stroke-miterlimit="10"/>
<path d="M45.4 29.3999H40V30.9999H45.4V29.3999Z" fill="#4E4B66" stroke="#4E4B66" stroke-width="0.6158" stroke-miterlimit="10"/>
<path d="M45.4 29.3999H40V30.9999H45.4V29.3999Z" fill="#4E4B66" stroke="#4E4B66" stroke-width="0.6158" stroke-miterlimit="10"/>
<path d="M45.4 32.5H40V34.1H45.4V32.5Z" fill="#4E4B66" stroke="#4E4B66" stroke-width="0.6158" stroke-miterlimit="10"/>
<path d="M45.4 32.5H40V34.1H45.4V32.5Z" fill="#4E4B66" stroke="#4E4B66" stroke-width="0.6158" stroke-miterlimit="10"/>
<path d="M11 11.0999C10.5 11.0999 10.2 11.4999 10.2 11.8999V30.2999C10.2 30.6999 10.6 31.0999 11 31.0999C11.5 31.0999 11.9 30.7999 11.9 30.2999V11.9999C11.9 11.3999 11.5 11.0999 11 11.0999Z" fill="#4E4B66" stroke="#4E4B66" stroke-width="0.6158" stroke-miterlimit="10"/>
<path d="M11 11.0999C10.5 11.0999 10.2 11.4999 10.2 11.8999V30.2999C10.2 30.6999 10.6 31.0999 11 31.0999C11.5 31.0999 11.9 30.7999 11.9 30.2999V11.9999C11.9 11.3999 11.5 11.0999 11 11.0999Z" fill="#4E4B66" stroke="#4E4B66" stroke-width="0.6158" stroke-miterlimit="10"/>
<path d="M1.90001 11.0999C1.40001 11.0999 1.10001 11.4999 1.10001 11.8999V30.2999C1.10001 30.6999 1.50001 31.0999 1.90001 31.0999C2.40001 31.0999 2.8 30.7999 2.8 30.2999V11.9999C2.7 11.3999 2.40001 11.0999 1.90001 11.0999Z" fill="#4E4B66" stroke="#4E4B66" stroke-width="0.6158" stroke-miterlimit="10"/>
<path d="M1.90001 11.0999C1.40001 11.0999 1.10001 11.4999 1.10001 11.8999V30.2999C1.10001 30.6999 1.50001 31.0999 1.90001 31.0999C2.40001 31.0999 2.8 30.7999 2.8 30.2999V11.9999C2.7 11.3999 2.40001 11.0999 1.90001 11.0999Z" fill="#4E4B66" stroke="#4E4B66" stroke-width="0.6158" stroke-miterlimit="10"/>
<path d="M11 12.7H1.80002V14.2999H11V12.7Z" fill="#4E4B66" stroke="#4E4B66" stroke-width="0.6158" stroke-miterlimit="10"/>
<path d="M11 12.7H1.80002V14.2999H11V12.7Z" fill="#4E4B66" stroke="#4E4B66" stroke-width="0.6158" stroke-miterlimit="10"/>
<path d="M8.80001 13.3999H7.20001V28.6999H8.80001V13.3999Z" fill="#4E4B66" stroke="#4E4B66" stroke-width="0.6158" stroke-miterlimit="10"/>
<path d="M8.80001 13.3999H7.20001V28.6999H8.80001V13.3999Z" fill="#4E4B66" stroke="#4E4B66" stroke-width="0.6158" stroke-miterlimit="10"/>
<path d="M5.80001 13.3999H4.20001V28.6999H5.80001V13.3999Z" fill="#4E4B66" stroke="#4E4B66" stroke-width="0.6158" stroke-miterlimit="10"/>
<path d="M5.80001 13.3999H4.20001V28.6999H5.80001V13.3999Z" fill="#4E4B66" stroke="#4E4B66" stroke-width="0.6158" stroke-miterlimit="10"/>
<path d="M11 27.8999H1.80002V29.4999H11V27.8999Z" fill="#4E4B66" stroke="#4E4B66" stroke-width="0.6158" stroke-miterlimit="10"/>
<path d="M11 27.8999H1.80002V29.4999H11V27.8999Z" fill="#4E4B66" stroke="#4E4B66" stroke-width="0.6158" stroke-miterlimit="10"/>
<path d="M17.2 17.2H11V18.7999H17.2V17.2Z" fill="#4E4B66" stroke="#4E4B66" stroke-width="0.6158" stroke-miterlimit="10"/>
<path d="M17.2 17.2H11V18.7999H17.2V17.2Z" fill="#4E4B66" stroke="#4E4B66" stroke-width="0.6158" stroke-miterlimit="10"/>
<path d="M17.2 23.2998H11V24.8998H17.2V23.2998Z" fill="#4E4B66" stroke="#4E4B66" stroke-width="0.6158" stroke-miterlimit="10"/>
<path d="M17.2 23.2998H11V24.8998H17.2V23.2998Z" fill="#4E4B66" stroke="#4E4B66" stroke-width="0.6158" stroke-miterlimit="10"/>
<path d="M36.3 3.5H24.7V5.1H36.3V3.5Z" fill="#4E4B66" stroke="#4E4B66" stroke-width="0.6158" stroke-miterlimit="10"/>
<path d="M36.3 3.5H24.7V5.1H36.3V3.5Z" fill="#4E4B66" stroke="#4E4B66" stroke-width="0.6158" stroke-miterlimit="10"/>
<path d="M36.3 37H24.7V38.6H36.3V37Z" fill="#4E4B66" stroke="#4E4B66" stroke-width="0.6158" stroke-miterlimit="10"/>
<path d="M36.3 37H24.7V38.6H36.3V37Z" fill="#4E4B66" stroke="#4E4B66" stroke-width="0.6158" stroke-miterlimit="10"/>
<path d="M28.5 8.1H32.4V9.6H28.5V8.1ZM28.5 6.5C27.6 6.5 27 7.2 27 8V9.6C27 10.5 27.7 11.1 28.5 11.1H32.4C33.3 11.1 33.9 10.4 33.9 9.6V8.1C33.9 7.2 33.2 6.6 32.4 6.6L28.5 6.5Z" fill="#4E4B66" stroke="#4E4B66" stroke-width="0.6158" stroke-miterlimit="10"/>
<path d="M28.5 8.1H32.4V9.6H28.5V8.1ZM28.5 6.5C27.6 6.5 27 7.2 27 8V9.6C27 10.5 27.7 11.1 28.5 11.1H32.4C33.3 11.1 33.9 10.4 33.9 9.6V8.1C33.9 7.2 33.2 6.6 32.4 6.6L28.5 6.5Z" fill="#4E4B66" stroke="#4E4B66" stroke-width="0.6158" stroke-miterlimit="10"/>
<path d="M28.5 14.2H32.4V15.7H28.5V14.2ZM28.5 12.7C27.6 12.7 27 13.4 27 14.2V15.7C27 16.6 27.7 17.2 28.5 17.2H32.4C33.3 17.2 33.9 16.5 33.9 15.7V14.2C33.9 13.3 33.2 12.7 32.4 12.7C32.4 12.7 28.5 12.7 28.5 12.7Z" fill="#4E4B66" stroke="#4E4B66" stroke-width="0.6158" stroke-miterlimit="10"/>
<path d="M28.5 14.2H32.4V15.7H28.5V14.2ZM28.5 12.7C27.6 12.7 27 13.4 27 14.2V15.7C27 16.6 27.7 17.2 28.5 17.2H32.4C33.3 17.2 33.9 16.5 33.9 15.7V14.2C33.9 13.3 33.2 12.7 32.4 12.7C32.4 12.7 28.5 12.7 28.5 12.7Z" fill="#4E4B66" stroke="#4E4B66" stroke-width="0.6158" stroke-miterlimit="10"/>
<path d="M28.5 20.2H32.4V21.7H28.5V20.2ZM28.5 18.7C27.6 18.7 27 19.4 27 20.2V21.7C27 22.6 27.7 23.2 28.5 23.2H32.4C33.3 23.2 33.9 22.5 33.9 21.7V20.2C33.9 19.3 33.2 18.7 32.4 18.7H28.5Z" fill="#4E4B66" stroke="#4E4B66" stroke-width="0.6158" stroke-miterlimit="10"/>
<path d="M28.5 20.2H32.4V21.7H28.5V20.2ZM28.5 18.7C27.6 18.7 27 19.4 27 20.2V21.7C27 22.6 27.7 23.2 28.5 23.2H32.4C33.3 23.2 33.9 22.5 33.9 21.7V20.2C33.9 19.3 33.2 18.7 32.4 18.7H28.5Z" fill="#4E4B66" stroke="#4E4B66" stroke-width="0.6158" stroke-miterlimit="10"/>
<path d="M28.5 26.3998H32.4V27.8998H28.5V26.3998ZM28.5 24.7998C27.6 24.7998 27 25.4998 27 26.2998V27.7998C27 28.6998 27.7 29.2998 28.5 29.2998H32.4C33.3 29.2998 33.9 28.5998 33.9 27.7998V26.2998C33.9 25.3998 33.2 24.7998 32.4 24.7998H28.5Z" fill="#4E4B66" stroke="#4E4B66" stroke-width="0.6158" stroke-miterlimit="10"/>
<path d="M28.5 26.3998H32.4V27.8998H28.5V26.3998ZM28.5 24.7998C27.6 24.7998 27 25.4998 27 26.2998V27.7998C27 28.6998 27.7 29.2998 28.5 29.2998H32.4C33.3 29.2998 33.9 28.5998 33.9 27.7998V26.2998C33.9 25.3998 33.2 24.7998 32.4 24.7998H28.5Z" fill="#4E4B66" stroke="#4E4B66" stroke-width="0.6158" stroke-miterlimit="10"/>
<path d="M28.5 32.4999H32.4V33.9999H28.5V32.4999ZM28.5 30.8999C27.6 30.8999 27 31.5999 27 32.3999V33.9999C27 34.8999 27.7 35.4999 28.5 35.4999H32.4C33.3 35.4999 33.9 34.7999 33.9 33.9999V32.4999C33.9 31.5999 33.2 30.9999 32.4 30.9999H28.5V30.8999Z" fill="#4E4B66" stroke="#4E4B66" stroke-width="0.6158" stroke-miterlimit="10"/>
<path d="M28.5 32.4999H32.4V33.9999H28.5V32.4999ZM28.5 30.8999C27.6 30.8999 27 31.5999 27 32.3999V33.9999C27 34.8999 27.7 35.4999 28.5 35.4999H32.4C33.3 35.4999 33.9 34.7999 33.9 33.9999V32.4999C33.9 31.5999 33.2 30.9999 32.4 30.9999H28.5V30.8999Z" fill="#4E4B66" stroke="#4E4B66" stroke-width="0.6158" stroke-miterlimit="10"/>
<path d="M46.2 2H40V3.6H46.2V2Z" fill="#4E4B66" stroke="#4E4B66" stroke-width="0.6158" stroke-miterlimit="10"/>
<path d="M46.2 2H40V3.6H46.2V2Z" fill="#4E4B66" stroke="#4E4B66" stroke-width="0.6158" stroke-miterlimit="10"/>
</svg>
