<svg width="66" height="36" viewBox="0 0 66 36" fill="none" xmlns="http://www.w3.org/2000/svg">
<g filter="url(#filter0_d_562_566)">
<path d="M44.2 3.2998V7.89981H45.7999C46.7 7.89981 47.4 8.59981 47.4 9.39981C47.4 10.1998 46.7 10.9998 45.7999 10.9998H44.2V16.9998H45.7999C46.7 16.9998 47.4 17.6998 47.4 18.4998C47.4 19.2998 46.7 19.9998 45.7999 19.9998H44.2V24.5998H49C49.9 24.5998 50.5999 23.8998 50.5999 23.0998V4.89981C50.5999 4.09981 49.9 3.39981 49 3.39981H44.2V3.2998ZM26.6 3.2998C25.7 3.2998 25 3.9998 25 4.7998V23.0998C25 23.8998 25.7 24.5998 26.6 24.5998H41V3.2998H26.6ZM18.6 18.5998H21.7999V9.49981H18.6V18.5998ZM55.4 9.39981H53.7999V18.4998H55.4V9.39981ZM53.7999 4.89981V6.39981H57C57.9 6.39981 58.5999 7.09981 58.5999 7.89981V12.4998H60.1999C61.0999 12.4998 61.8 13.1998 61.8 13.9998C61.8 14.7998 61.0999 15.4998 60.1999 15.4998H58.5999V20.0998C58.5999 20.8998 57.9 21.5998 57 21.5998H53.7999V23.0998C53.7999 25.5998 51.5999 27.6998 49 27.6998H26.6C24 27.6998 21.7999 25.6998 21.7999 23.0998V21.5998H17C16.1 21.5998 15.4 20.8998 15.4 20.0998V15.4998H5.79995C4.89995 15.4998 4.19995 14.7998 4.19995 13.9998C4.19995 13.1998 4.89995 12.4998 5.79995 12.4998H15.4V7.89981C15.4 7.09981 16.1 6.39981 17 6.39981H21.7999V4.89981C21.7999 2.39981 24 0.299805 26.6 0.299805H49C51.7 0.299805 53.7999 2.29981 53.7999 4.89981Z" fill="#4E4B66"/>
</g>
<defs>
<filter id="filter0_d_562_566" x="0.199951" y="0.299805" width="65.6" height="35.3999" filterUnits="userSpaceOnUse" color-interpolation-filters="sRGB">
<feFlood flood-opacity="0" result="BackgroundImageFix"/>
<feColorMatrix in="SourceAlpha" type="matrix" values="0 0 0 0 0 0 0 0 0 0 0 0 0 0 0 0 0 0 127 0" result="hardAlpha"/>
<feOffset dy="4"/>
<feGaussianBlur stdDeviation="2"/>
<feComposite in2="hardAlpha" operator="out"/>
<feColorMatrix type="matrix" values="0 0 0 0 0 0 0 0 0 0 0 0 0 0 0 0 0 0 0.25 0"/>
<feBlend mode="normal" in2="BackgroundImageFix" result="effect1_dropShadow_562_566"/>
<feBlend mode="normal" in="SourceGraphic" in2="effect1_dropShadow_562_566" result="shape"/>
</filter>
</defs>
</svg>
