<svg width="50" height="50" viewBox="0 0 50 50" fill="none" xmlns="http://www.w3.org/2000/svg">
<path d="M46.2 43H43.1V41.4001H41.5V43H38.4V36.7001H41.5V39.8H43.1V36.7001H46.2V43ZM44.6 47.7001H39.9V44.6H44.6V47.7001ZM38.7 33.6H45.9L47.5 35.2001H37.2L38.7 33.6ZM45.4 32H39.1V27.3H45.4V32ZM26.6 21.1C21.4 21.1 17.2 16.9 17.2 11.7C17.2 7.20005 20.4 3.40005 24.7 2.50005C25.4 2.40005 26.1 2.30005 26.9 2.30005C32 2.40005 36.1 6.60005 36.1 11.7C36 16.9 31.8 21.1 26.6 21.1ZM14.8 25.8H8.50001V21.1H14.8V25.8ZM21.1 28.1V29.7001C21.1 30.1 20.7 30.5 20.3 30.5H3.00001C2.60001 30.5 2.20001 30.2001 2.20001 29.7001V28.1C2.20001 27.7 2.60001 27.3 3.00001 27.3H20.3C20.7 27.3 21.1 27.7 21.1 28.1ZM5.10001 43L4.30001 41.4001H19L18.2 43H5.10001ZM16.4 47.7001H14.8V44.6H16.4V47.7001ZM8.50001 47.7001H6.90001V44.6H8.50001V47.7001ZM3.80001 32H19.5V39.8H3.80001V32ZM49.3 34.8L47 32.5V25.8H43.1V16.8C43.1 8.00005 35.9 0.800049 27 0.800049C26.9 0.800049 26.9 0.800049 26.8 0.800049C26.7 0.800049 26.7 0.800049 26.6 0.800049C25.8 0.800049 25.1 0.900049 24.3 1.00005C16.7 2.30005 10.9 8.90005 10.9 16.8V19.5H7.00001V25.8H3.10001C1.80001 25.8 0.700012 26.8 0.700012 28.1V29.7001C0.700012 30.7001 1.40001 31.6001 2.30001 31.9001V40.8L4.20001 44.5H5.50001V49.2H10.2V44.5H13.3V49.2H18V44.5H19.3L21.2 40.8V31.9001C22.1 31.6001 22.8 30.7001 22.8 29.7001V28.1C22.8 26.8 21.7 25.8 20.4 25.8H16.5V19.5H12.6V16.8C12.6 12.6 14.4 8.90005 17.2 6.20005C16.3 7.80005 15.7 9.70005 15.7 11.7C15.7 17.7001 20.6 22.6 26.7 22.6C32.8 22.6 37.7 17.7001 37.7 11.7C37.7 9.10005 36.8 6.70005 35.2 4.80005C39.1 7.40005 41.6 11.8 41.6 16.8V25.8H37.7V32.5L35.3 34.8V36.7001H36.9V44.5H38.5V49.2H46.4V44.5H48V36.7001H49.6V34.8H49.3Z" fill="#4E4B66" stroke="#4E4B66" stroke-width="0.5" stroke-miterlimit="10"/>
</svg>
