<svg width="38" height="46" viewBox="0 0 38 46" fill="none" xmlns="http://www.w3.org/2000/svg">
<path d="M6.10001 16.1001C5.50001 16.1001 4.90001 15.6001 4.90001 15.0001C4.90001 14.4001 5.40001 13.9001 6.10001 13.9001H9.60001C10.2 13.9001 10.8 14.4001 10.8 15.0001C10.8 15.6001 10.3 16.1001 9.60001 16.1001H6.10001ZM7.30001 11.5001C6.60001 11.5001 6.10001 11.0001 6.10001 10.4001C6.10001 9.8001 6.60001 9.3001 7.30001 9.3001H9.60001C10.2 9.3001 10.8 9.8001 10.8 10.4001C10.8 11.0001 10.3 11.5001 9.60001 11.5001H7.30001ZM6.10001 6.9001C5.50001 6.9001 4.90001 6.4001 4.90001 5.8001C4.90001 5.2001 5.40001 4.6001 6.10001 4.6001H9.60001C10.2 4.6001 10.8 5.1001 10.8 5.8001C10.8 6.4001 10.3 6.9001 9.60001 6.9001H6.10001ZM19 39.1001C20.3 39.1001 21.3 38.1001 21.3 36.8001C21.3 35.5001 20.2 34.5001 19 34.5001C17.7 34.5001 16.7 35.5001 16.7 36.8001C16.7 38.1001 17.7 39.1001 19 39.1001ZM17.8 32.3001V25.3001C17.8 24.7001 18.3 24.2001 19 24.2001C19.6 24.2001 20.2 24.7001 20.2 25.3001V32.3001C22.2 32.8001 23.7 34.6001 23.7 36.8001C23.7 39.3001 21.6 41.4001 19 41.4001C16.4 41.4001 14.3 39.3001 14.3 36.8001C14.3 34.7001 15.8 32.9001 17.8 32.3001ZM15.5 18.4001C15.5 19.0001 15 19.5001 14.3 19.5001C13.6 19.5001 13.1 19.0001 13.1 18.4001V5.8001C13.1 2.6001 15.7 0.100098 19 0.100098C22.2 0.100098 24.9 2.7001 24.9 5.8001V9.2001C24.9 9.8001 24.4 10.3001 23.7 10.3001C23 10.3001 22.5 9.8001 22.5 9.2001V5.8001C22.5 3.9001 20.9 2.3001 19 2.3001C17.1 2.3001 15.5 3.8001 15.5 5.8001V18.4001ZM28.4 36.8001C28.4 41.9001 24.2 46.0001 19 46.0001C13.8 46.0001 9.60001 41.9001 9.60001 36.8001C9.60001 33.8001 11.1 31.0001 13.6 29.3001C14.1 28.9001 14.9 29.1001 15.2 29.6001C15.6 30.1001 15.4 30.8001 14.9 31.2001C13 32.5001 11.9 34.6001 11.9 36.9001C11.9 40.7001 15.1 43.8001 18.9 43.8001C22.8 43.8001 25.9 40.7001 25.9 36.9001C25.9 34.6001 24.8 32.5001 22.9 31.2001C22.6 31.0001 22.4 30.6001 22.4 30.3001V20.8001C22.4 20.2001 22.9 19.6001 23.6 19.6001C24.2 19.6001 24.8 20.1001 24.8 20.8001V29.7001C27.1 31.3001 28.4 34.0001 28.4 36.8001ZM9.30001 30.7001C9.00001 30.9001 8.70001 31.0001 8.40001 31.0001H1.40001C0.800011 31.0001 0.200012 30.5001 0.200012 29.9001C0.200012 29.3001 0.700011 28.8001 1.40001 28.8001H8.00001L28.8 8.4001C29 8.2001 29.3 8.1001 29.6 8.1001H36.6C37.2 8.1001 37.8 8.6001 37.8 9.2001C37.8 9.8001 37.3 10.3001 36.6 10.3001H30L9.30001 30.7001Z" fill="#4E4B66"/>
</svg>
