<svg width="140" height="55" viewBox="0 0 140 55" fill="none" xmlns="http://www.w3.org/2000/svg">
<g clip-path="url(#clip0_7279_5271)">
<path d="M27.1925 44.2373C36.0912 44.2373 43.3051 37.048 43.3051 28.1795C43.3051 19.311 36.0912 12.1216 27.1925 12.1216C18.2937 12.1216 11.0798 19.311 11.0798 28.1795C11.0798 37.048 18.2937 44.2373 27.1925 44.2373Z" stroke="#F2712F" stroke-width="1.527"/>
<path d="M18.0749 41.786C15.6594 42.9977 13.2687 43.3741 12.2088 42.4715C9.54974 40.2147 13.3828 31.3958 20.7645 22.7938C28.1462 14.1919 36.2929 9.04322 38.952 11.3C40.0593 12.2442 40.0425 14.3264 39.1031 17.0597" stroke="#F2712F" stroke-width="1.527"/>
<path d="M36.1474 41.786C38.563 42.9977 41.1385 43.3741 42.2032 42.4715C44.8623 40.2147 41.0292 31.3958 33.6475 22.7938C26.2658 14.1919 18.1255 9.04322 15.4664 11.3C14.3591 12.2442 14.376 14.3264 15.3154 17.0597" stroke="#F2712F" stroke-width="1.527"/>
<path d="M42.9787 25.6216C46.5354 26.541 47.7263 27.5861 47.7263 29.1237C47.7263 32.2839 38.4996 34.7825 27.1265 34.7825C15.7534 34.7825 6.56763 32.7019 6.56763 29.3215C6.56763 27.5597 8.69792 26.3704 11.3988 25.4262" stroke="#F2712F" stroke-width="2.244"/>
<path d="M27.1337 54.1022C41.6213 54.1022 53.3659 42.1922 53.3659 27.5004C53.3659 12.8086 41.6213 0.89856 27.1337 0.89856C12.6461 0.89856 0.901611 12.8086 0.901611 27.5004C0.901611 42.1922 12.6461 54.1022 27.1337 54.1022Z" stroke="#F2712F" stroke-width="2.244"/>
<path d="M18.7041 38.6122L27.2381 20.6652L35.781 38.6122H32.5265L27.243 27.486L21.9666 38.6122H18.7041Z" fill="#F56E1E"/>
<path d="M27.2381 20.6652L18.7041 38.6122H21.9666L27.2422 27.486L32.5273 38.6122H35.7818L27.2381 20.6652Z" stroke="#F2712F" stroke-width="1.497"/>
<path d="M119.571 20.1662C119.55 21.5164 119.799 22.8573 120.303 24.1108C120.807 25.3642 121.556 26.5052 122.507 27.4674C123.457 28.4296 124.591 29.1937 125.841 29.7153C127.09 30.2368 128.432 30.5054 129.787 30.5054C131.142 30.5054 132.483 30.2368 133.733 29.7153C134.983 29.1937 136.116 28.4296 137.067 27.4674C138.018 26.5052 138.767 25.3642 139.271 24.1108C139.775 22.8573 140.024 21.5164 140.003 20.1662C140.024 18.816 139.775 17.4751 139.271 16.2216C138.767 14.9682 138.018 13.8271 137.067 12.865C136.116 11.9028 134.983 11.1387 133.733 10.6171C132.483 10.0956 131.142 9.82697 129.787 9.82697C128.432 9.82697 127.09 10.0956 125.841 10.6171C124.591 11.1387 123.457 11.9028 122.507 12.865C121.556 13.8271 120.807 14.9682 120.303 16.2216C119.799 17.4751 119.55 18.816 119.571 20.1662ZM134.409 20.1662C134.45 20.7977 134.362 21.431 134.148 22.0269C133.934 22.6228 133.6 23.1687 133.166 23.6307C132.732 24.0927 132.207 24.4609 131.625 24.7127C131.042 24.9645 130.414 25.0944 129.779 25.0944C129.144 25.0944 128.516 24.9645 127.933 24.7127C127.35 24.4609 126.826 24.0927 126.392 23.6307C125.958 23.1687 125.624 22.6228 125.41 22.0269C125.196 21.431 125.107 20.7977 125.149 20.1662C125.107 19.5347 125.196 18.9014 125.41 18.3054C125.624 17.7095 125.958 17.1637 126.392 16.7017C126.826 16.2397 127.35 15.8714 127.933 15.6197C128.516 15.3679 129.144 15.238 129.779 15.238C130.414 15.238 131.042 15.3679 131.625 15.6197C132.207 15.8714 132.732 16.2397 133.166 16.7017C133.6 17.1637 133.934 17.7095 134.148 18.3054C134.362 18.9014 134.45 19.5347 134.409 20.1662ZM107.61 30.1768H113.197V15.5517H118.623V10.1435H102.189V15.5517H107.616V30.18L107.61 30.1768ZM90.2896 25.8803V21.7455H93.3175C93.6024 21.7245 93.8886 21.7624 94.1581 21.8566C94.4277 21.9509 94.6748 22.0996 94.8841 22.2933C95.0934 22.4871 95.2603 22.7218 95.3745 22.9828C95.4886 23.2437 95.5476 23.5254 95.5476 23.8101C95.5476 24.0947 95.4886 24.3764 95.3745 24.6373C95.2603 24.8983 95.0934 25.133 94.8841 25.3268C94.6748 25.5205 94.4277 25.6692 94.1581 25.7635C93.8886 25.8577 93.6024 25.8956 93.3175 25.8746H90.2896V25.8803ZM90.2896 17.931V14.4313H92.8394C93.0826 14.4099 93.3276 14.4391 93.5589 14.5172C93.7902 14.5953 94.0026 14.7204 94.1827 14.8848C94.3628 15.0491 94.5066 15.2489 94.605 15.4716C94.7033 15.6943 94.7541 15.935 94.7541 16.1784C94.7541 16.4217 94.7033 16.6624 94.605 16.8851C94.5066 17.1078 94.3628 17.3076 94.1827 17.4719C94.0026 17.6363 93.7902 17.7614 93.5589 17.8395C93.3276 17.9176 93.0826 17.9468 92.8394 17.9254H90.2896V17.931ZM84.7031 30.1768H94.6009C98.7795 30.1768 101.303 27.6357 101.303 24.4507C101.314 23.7156 101.163 22.9869 100.86 22.3165C100.557 21.6461 100.11 21.0506 99.5493 20.5722C99.0203 20.1363 98.4284 19.7824 97.7935 19.5223C98.2889 19.2779 98.7419 18.9562 99.1355 18.5693C99.5698 18.1594 99.9158 17.6655 100.152 17.118C100.389 16.5704 100.511 15.9805 100.511 15.3843C100.511 12.4924 98.1205 10.1347 93.9684 10.1347H84.7168V30.18L84.7031 30.1768ZM63.1213 30.1768H69.0253L70.1406 26.5153H76.2053L77.3206 30.1768H83.2245L76.3636 10.1395H69.9799L63.1213 30.1768ZM71.4223 22.0714L73.1758 16.3453L74.9292 22.0714H71.4223Z" fill="#F56E1E"/>
<path d="M131.259 45.075H133.826L134.312 43.487H136.943L137.429 45.075H139.997L137.024 36.373H134.256L131.259 45.075ZM134.858 41.5561L135.621 39.0735L136.385 41.5561H134.858ZM123.35 45.075H125.773V41.2798L128.198 45.075H130.965L127.921 40.6528L130.688 36.373H127.987L125.773 40.0569V36.373H123.348L123.35 45.075ZM114.006 45.075H116.153L119.407 40.31V45.075H121.836V36.3834H119.689L116.434 41.1485V36.3834H114.01L114.006 45.075ZM108.571 40.3877V38.5882H109.611C109.734 38.5791 109.858 38.5956 109.975 38.6364C110.092 38.6773 110.199 38.7417 110.29 38.8257C110.38 38.9096 110.452 39.0113 110.502 39.1244C110.551 39.2374 110.577 39.3594 110.577 39.4827C110.577 39.606 110.551 39.728 110.502 39.8411C110.452 39.9541 110.38 40.0558 110.29 40.1397C110.199 40.2237 110.092 40.2881 109.975 40.329C109.858 40.3698 109.734 40.3863 109.611 40.3773H108.571V40.3877ZM106.147 45.0774H108.571V42.5948H109.821C110.241 42.6113 110.66 42.543 111.053 42.3942C111.446 42.2453 111.805 42.0189 112.108 41.7285C112.411 41.4381 112.652 41.0897 112.817 40.7043C112.981 40.3188 113.066 39.9041 113.066 39.4851C113.066 39.0661 112.981 38.6515 112.817 38.266C112.652 37.8805 112.411 37.5321 112.108 37.2417C111.805 36.9513 111.446 36.7249 111.053 36.5761C110.66 36.4272 110.241 36.359 109.821 36.3754H106.147V45.075V45.0774ZM100.51 45.0774H102.935V38.7219H105.292V36.373H98.1535V38.7219H100.51V45.075V45.0774ZM90.2519 45.0774H92.6763V41.2798L95.1007 45.075H97.8682L94.8235 40.6528L97.591 36.373H94.8902L92.6755 40.0569V36.373H90.2551V45.075L90.2519 45.0774ZM82.3173 45.0774H88.9694V42.9352H84.7417V41.6899H88.4824V39.6165H84.7417V38.5137H88.8263V36.373H82.3173V45.0774ZM72.4952 45.0774C72.5942 45.1069 72.6951 45.1294 72.7973 45.1447C73.0155 45.1888 73.2376 45.2111 73.4603 45.2112C74.9951 45.2112 76.01 44.1749 76.1611 42.4531L76.4375 38.7251H78.375V45.0783H80.7994V36.3834H74.2904L73.8717 41.8292C73.8128 42.5649 73.4437 42.9328 72.7644 42.9328H72.4879V45.0726L72.4952 45.0774ZM63.4958 42.1744C63.7928 43.0463 64.3526 43.8057 65.0987 44.3488C65.8449 44.8919 66.741 45.1922 67.6648 45.2088C68.5012 45.2324 69.3277 45.0235 70.0517 44.6054C70.7757 44.1872 71.3685 43.5765 71.7638 42.8415C72.1591 42.1065 72.3412 41.2763 72.2897 40.444C72.2382 39.6117 71.9552 38.8101 71.4724 38.129C70.9895 37.448 70.3259 36.9144 69.5559 36.588C68.7859 36.2617 67.9399 36.1554 67.1128 36.2813C66.2856 36.4071 65.5099 36.76 64.8726 37.3004C64.2354 37.8408 63.7617 38.5474 63.5047 39.341L65.9958 39.55C66.0996 39.3627 66.2295 39.1909 66.3815 39.0398C66.5477 38.8712 66.7463 38.7377 66.9654 38.6472C67.1845 38.5566 67.4196 38.511 67.6568 38.5129C67.9342 38.5041 68.2102 38.5547 68.4663 38.6614C68.7223 38.768 68.9524 38.9282 69.141 39.1311C69.3052 39.3112 69.4347 39.52 69.5227 39.747H66.8468V41.6778H69.5227C69.3801 42.0539 69.1231 42.3761 68.7877 42.5994C68.4523 42.8227 68.0552 42.9359 67.652 42.9232C67.4176 42.9324 67.1838 42.8942 66.9646 42.8109C66.7454 42.7277 66.5454 42.601 66.3767 42.4387C66.219 42.3025 66.0882 42.1381 65.991 41.9541L63.4958 42.1744Z" fill="#F56E1E"/>
</g>
<defs>
<clipPath id="clip0_7279_5271">
<rect width="140" height="55" fill="white"/>
</clipPath>
</defs>
</svg>
